<?xml version="1.0" encoding="UTF-8"?>
<svg xmlns="http://www.w3.org/2000/svg" viewBox="0 0 200 100">
  <rect width="200" height="100" style="fill: orange;" />
  <g>
    <path
      d="M15.64,60.38c.7-5.95.66-21.61,0-27.56-.26-2.34-1.05-2.62-1.38-3.02h18.91c-.4.4-1.15.68-1.45,3.02-.21,1.85-.35,4.64-.42,7.78h4.71c-.09-3.14-.23-5.93-.45-7.78-.26-2.34-1.05-2.62-1.38-3.02h18.91c-.4.4-1.15.68-1.45,3.02-.66,5.95-.66,21.61,0,27.56.3,2.34,1.05,2.65,1.45,3.02h-18.91c.33-.38,1.1-.68,1.38-3.02.42-3.56.56-10.41.49-16.73h-4.8c-.07,6.33.07,13.17.47,16.73.3,2.34,1.05,2.65,1.45,3.02H14.25c.33-.38,1.1-.68,1.38-3.02Z"
      style="fill: #fff;" />
    <path
      d="M55.15,63.22c.35-.35.96-.87,1.2-2.84.35-2.98.52-8.39.52-13.78s-.16-10.78-.52-13.76c-.23-1.95-.75-2.53-1.17-2.84-.09-.07-.16-.14-.21-.21h29.18v7.69c-3.16-3.52-7.17-4.66-11.72-4.66-.19,1.69-.33,4.2-.42,6.96,4.03-.28,6.87-1.24,7.92-2.48v8.25c-1.05-1.27-3.94-2.27-7.97-2.51,0,6.07.05,13.59.47,17.34,3.19,0,9.09-2.48,11.72-4.66v7.69h-29.18l.19-.19Z"
      style="fill: #fff;" />
    <path
      d="M88.36,60.38c.7-5.95.68-21.61,0-27.56-.28-2.34-1.05-2.62-1.38-3.02h18.91c-.4.4-1.15.68-1.45,3.02-.66,5.95-.61,21.54.05,27.49,3.19.05,8.62-1.85,10.92-4.64v7.73h-28.43c.33-.38,1.1-.68,1.38-3.02Z"
      style="fill: #fff;" />
    <path
      d="M117.96,60.38c.7-5.95.68-21.61,0-27.56-.28-2.34-1.05-2.62-1.38-3.02h18.91c-.4.4-1.15.68-1.45,3.02-.66,5.95-.61,21.54.05,27.49,3.19.05,8.62-1.85,10.92-4.64v7.73h-28.43c.33-.38,1.1-.68,1.38-3.02Z"
      style="fill: #fff;" />
    <path
      d="M144.61,46.6c0-9.59,7.45-17.37,20.46-17.37s20.44,7.78,20.44,17.37-7.5,17.39-20.44,17.39-20.46-7.78-20.46-17.39ZM168.94,46.65c0-8.11-.23-14.48-3.96-14.48-3.42,0-3.82,6.38-3.82,14.48s.4,14.41,3.82,14.41c3.73,0,3.96-6.26,3.96-14.41Z"
      style="fill: #fff;" />
  </g>
</svg>